<?xml version="1.0" encoding="UTF-8"?>
<svg id="Layer_1" xmlns="http://www.w3.org/2000/svg" xmlns:xlink="http://www.w3.org/1999/xlink" version="1.1" viewBox="0 0 1029.2 1266.5">
  <!-- Generator: Adobe Illustrator 29.8.2, SVG Export Plug-In . SVG Version: 2.1.1 Build 3)  -->
  <defs>
    <style>
      .st0, .st1 {
        fill: none;
      }

      .st2 {
        fill: #163358;
      }

      .st3, .st4 {
        fill: url(#LykkeLiga_mørk_blå_2);
      }

      .st1, .st4 {
        stroke: url(#LykkeLiga_mørk_blå_2);
        stroke-miterlimit: 10;
      }

      .st5 {
        fill: url(#New_Pattern_Swatch_1);
      }
    </style>
    <pattern id="New_Pattern_Swatch_1" data-name="New Pattern Swatch 1" x="0" y="0" width="110" height="110" patternTransform="translate(57.6 181.5)" patternUnits="userSpaceOnUse" viewBox="0 0 110 110">
      <g>
        <rect class="st0" width="110" height="110"/>
        <rect class="st2" width="110" height="110"/>
      </g>
    </pattern>
    <pattern id="LykkeLiga_mørk_blå_2" data-name="LykkeLiga mørk blå 2" x="0" y="0" width="110" height="110" patternTransform="translate(57.6 181.5)" patternUnits="userSpaceOnUse" viewBox="0 0 110 110">
      <g>
        <rect class="st0" width="110" height="110"/>
        <rect class="st2" width="110" height="110"/>
      </g>
    </pattern>
  </defs>
  <path class="st5" d="M4.6,1075.1c74,1.5,148.3,2.6,222.6,3.4,1.3,1.6,2.6,3.1,3.9,4.7.4.5.8,1,1.2,1.4,17.3,20.1,36.6,39.3,57.5,57.1l1.2,1.1c20.6,17.4,43.2,33.9,67.2,49.1l.9.6c23.4,14.7,48.7,28.5,75.4,41.2l.5.2c24.5,11.5,50.7,22.4,78,32.2l1.5.5,1.5-.5c2-.7,62.3-24.5,87.6-36.8l.6-.3c26.4-12.9,51.4-27.1,74.6-42.1.3-.2.6-.4.9-.6h.1c23.6-15.5,45.8-32.3,66-50.1l1.3-1.1c20.1-17.8,38.7-36.9,55.2-56.8,73.5-.9,146.8-2.1,220-3.6-337.6-6.7-680.1-6.6-1017.7.6ZM790.6,1078.3c-15,17.5-31.6,34.3-49.4,50.1l-1.3,1.1c-19.8,17.4-41.7,34-64.9,49.2-.4.2-.7.5-1.1.7-22.8,14.8-47.5,28.8-73.6,41.6l-.6.3c-23.3,11.4-75.7,32.2-85.3,35.9-26.5-9.6-51.9-20.1-75.7-31.4l-.5-.2c-26.3-12.5-51.4-26.1-74.5-40.6-.2-.1-.4-.2-.5-.3l-.4-.2c-23.7-14.9-45.9-31.2-66.2-48.3l-1.2-1c-20.5-17.5-39.6-36.4-56.6-56.2,0,0-.1-.1-.2-.2,183.7,1.9,368.1,1.8,551.8-.4Z"/>
  <polygon class="st5" points="981.2 501.8 976.4 529.4 996.6 509.9 1021.4 523 1009 497.8 1029.2 478.3 1001.4 482.3 989 457.1 984.2 484.7 956.4 488.7 981.2 501.8"/>
  <polygon class="st5" points="985.4 558.5 979.2 585.9 951.2 588.4 975.4 602.8 969.2 630.1 990.3 611.6 1014.4 626 1003.3 600.2 1024.4 581.7 996.5 584.3 985.4 558.5"/>
  <polygon class="st5" points="985.1 660.1 979.2 687.6 951.3 690.4 975.5 704.5 969.6 732 990.5 713.2 1014.8 727.3 1003.5 701.7 1024.4 682.9 996.4 685.8 985.1 660.1"/>
  <polygon class="st5" points="980.6 787.9 970.9 761.6 963.3 788.6 935.3 789.7 958.6 805.3 951 832.3 973 814.9 996.4 830.5 986.7 804.2 1008.7 786.8 980.6 787.9"/>
  <polygon class="st5" points="7.8 523 32.6 509.9 52.8 529.4 47.9 501.8 72.7 488.7 45 484.7 40.1 457.1 27.8 482.3 0 478.3 20.1 497.8 7.8 523"/>
  <polygon class="st5" points="43.8 558.5 32.7 584.3 4.8 581.7 25.8 600.2 14.7 626 38.9 611.6 60 630.1 53.8 602.8 77.9 588.4 50 585.9 43.8 558.5"/>
  <polygon class="st5" points="38.6 713.2 59.5 732 53.6 704.5 77.9 690.4 50 687.6 44.1 660.1 32.7 685.8 4.8 682.9 25.7 701.7 14.4 727.3 38.6 713.2"/>
  <polygon class="st5" points="65.9 788.6 58.3 761.6 48.5 787.9 20.5 786.8 42.5 804.2 32.8 830.5 56.1 814.9 78.1 832.3 70.5 805.3 93.9 789.7 65.9 788.6"/>
  <polygon class="st5" points="38.2 1006.2 38.2 1033.9 128.3 1033.9 128.3 997.3 100.6 997.3 100.6 1006.2 74.8 1006.2 74.8 935.9 83.7 935.9 83.7 908.2 38.2 908.2 38.2 935.9 47.1 935.9 47.1 1006.2 38.2 1006.2"/>
  <polygon class="st5" points="200.4 908.2 154.9 908.2 154.9 935.9 168.4 935.9 190.5 980.1 190.5 1006.2 181.6 1006.2 181.6 1033.9 227.2 1033.9 227.2 1006.2 218.3 1006.2 218.3 980.1 240.3 935.9 253.9 935.9 253.9 908.2 208.3 908.2 208.3 935.9 212.5 935.9 204.4 952.1 196.3 935.9 200.4 935.9 200.4 908.2"/>
  <polygon class="st5" points="280.5 1006.2 280.5 1033.9 326 1033.9 326 1006.2 317.1 1006.2 317.1 980.5 325.2 980.5 338.1 1006.2 333.9 1006.2 333.9 1033.9 379.5 1033.9 379.5 1006.2 365.9 1006.2 348.4 971 365.9 935.9 379.5 935.9 379.5 908.2 333.9 908.2 333.9 935.9 338.1 935.9 325.2 961.6 317.1 961.6 317.1 935.9 326 935.9 326 908.2 280.5 908.2 280.5 935.9 289.4 935.9 289.4 1006.2 280.5 1006.2"/>
  <polygon class="st5" points="406.1 1006.2 406.1 1033.9 451.6 1033.9 451.6 1006.2 442.7 1006.2 442.7 980.5 450.8 980.5 463.7 1006.2 459.5 1006.2 459.5 1033.9 505.1 1033.9 505.1 1006.2 491.5 1006.2 473.9 971 491.5 935.9 505.1 935.9 505.1 908.2 459.5 908.2 459.5 935.9 463.7 935.9 450.8 961.6 442.7 961.6 442.7 935.9 451.6 935.9 451.6 908.2 406.1 908.2 406.1 935.9 415 935.9 415 1006.2 406.1 1006.2"/>
  <polygon class="st5" points="531.6 1006.2 531.6 1033.9 621.7 1033.9 621.7 997.3 594 997.3 594 1006.2 568.3 1006.2 568.3 980.5 603.9 980.5 603.9 952.7 568.3 952.7 568.3 935.9 594 935.9 594 944.8 621.7 944.8 621.7 908.2 531.6 908.2 531.6 935.9 540.5 935.9 540.5 1006.2 531.6 1006.2"/>
  <polygon class="st5" points="738.4 953.7 738.4 926.3 720.3 908.2 666.5 908.2 648.3 926.3 648.3 1015.8 666.5 1033.9 720.3 1033.9 738.4 1015.8 738.4 988.4 710.7 988.4 710.7 997.6 702.1 1006.2 684.7 1006.2 676 997.6 676 944.5 684.7 935.9 702.1 935.9 710.7 944.5 710.7 953.7 738.4 953.7"/>
  <polygon class="st5" points="810.6 935.9 810.6 908.2 765 908.2 765 935.9 773.9 935.9 773.9 1015.8 792 1033.9 837 1033.9 855.1 1015.8 855.1 935.9 864 935.9 864 908.2 818.5 908.2 818.5 935.9 827.4 935.9 827.4 997.6 818.8 1006.2 810.3 1006.2 801.7 997.6 801.7 935.9 810.6 935.9"/>
  <path class="st5" d="M890.6,1006.2v27.7h45.5v-27.7h-8.9v-25.7h44.3l18.1-18.1v-36l-18.1-18.1h-80.9v27.7h8.9v70.3h-8.9ZM927.3,935.9h26l8.4,8.4-8.4,8.4h-26v-16.8Z"/>
  <path class="st5" d="M555.2,705.9l12.1,20.4c3.4,5.7,5.2,12.2,5.2,18.9v1.8h2.9l-20.2-85.8v44.7Z"/>
  <polygon class="st5" points="427.1 772.4 422.4 785.2 427.1 785.2 427.1 772.4"/>
  <path class="st5" d="M447.9,747.2h.3s21.2-54.1,21.2-54.1v-35.4s-35.6,96.6-35.6,96.6l1.5-1.3c3.6-3.1,7.9-5.1,12.6-5.7Z"/>
  <path class="st5" d="M496.4,356.8c0-22-17.9-39.9-39.9-39.9s-39.9,17.9-39.9,39.9,17.9,39.9,39.9,39.9,39.9-17.9,39.9-39.9ZM421.6,356.8c0-19.2,15.6-34.9,34.9-34.9s34.9,15.6,34.9,34.9-15.6,34.9-34.9,34.9-34.9-15.6-34.9-34.9Z"/>
  <path class="st5" d="M481.4,360.8c0-11.3-9.1-20.4-20.4-20.4s-4.9.5-7.1,1.3c.1.1.3.3.4.4,2.8,3.2,2.5,8-.6,10.8s-8,2.5-10.8-.6c0,0-.1-.2-.2-.3-1.3,2.7-2,5.7-2,8.9,0,11.3,9.1,20.4,20.4,20.4s20.4-9.1,20.4-20.4Z"/>
  <path class="st5" d="M565.7,318.9c-22,0-39.9,17.9-39.9,39.9s17.9,39.9,39.9,39.9,39.9-17.9,39.9-39.9-17.9-39.9-39.9-39.9ZM565.7,393.6c-19.2,0-34.9-15.6-34.9-34.9s15.6-34.9,34.9-34.9,34.9,15.6,34.9,34.9-15.6,34.9-34.9,34.9Z"/>
  <path class="st5" d="M561.4,340.4c-2.5,0-4.9.5-7.1,1.3.1.1.3.3.4.4,2.8,3.2,2.5,8-.6,10.8-3.2,2.8-8,2.5-10.8-.6,0,0-.1-.2-.2-.3-1.3,2.7-2,5.7-2,8.9,0,11.3,9.1,20.4,20.4,20.4s20.4-9.1,20.4-20.4-9.1-20.4-20.4-20.4Z"/>
  <path class="st5" d="M582.4,420c-69.6,25.5-129,15.9-144.7,12.5,0-3.8-1.2-7.5-3.5-10.4l-4.4,25.8s0,0,0,0c0,0,0,0,0,0,3.5-2.1,5.9-5.5,7.1-9.4,5.6,1.2,16,3,30,4-1.4,4.3-2.7,9-4.2,13.1-1,2.9-2.4,4.9-4.1,7.1,0,0,3.7,1.5,3.7,1.5,9.8,3.7,23.8,5.5,33.6,1.2.9-4.5,1.5-9.3.8-13.9-.4-2.9-1.1-5.8-2.2-8.5,9.9-.3,20.7-1.1,32.2-2.8,1.3,5.1,2.6,10.3,2.8,15.3,0,.8-.1,1.6-.3,2l-1.4,3.3s4.1.4,4.1.4c10.5.9,24.4-1.2,32.7-8-.4-4.5-1-9.1-2-13.5-.5-2.2-1-4.5-1.5-6.7,7.3-2,14.7-4.3,22.2-7,1.7,4.9,5.6,8.8,11.3,8.9-6.4-7.6-6.7-16.3-9-25.6-2.4,2.9-3.5,6.8-3.4,10.7ZM492.8,451.5c-.4,3.1-1.1,6-1.9,9-4,.7-8.3.4-12.4.2-3.8-.3-7.6-.8-11.3-1.5.7-2.6.9-5.2,1.1-8,.1-2.9.1-5.7-.1-8.6,5.5.4,11.5.6,17.9.6s4.7,0,7.2,0c0,2.9-.1,5.7-.4,8.5ZM559.1,434c-.3,3.5-.5,11.2-.6,15.9-.5.2-1,.5-1.6.7-6.9,2.5-14.4,3.9-21.8,4.5-.6-5-3.4-10.7-6.3-15.3,9.7-1.5,19.9-3.5,30.4-6.3,0,.1,0,.3,0,.4Z"/>
  <path class="st5" d="M921.3,794.1v-.2c.1-.7.2-1.4.3-2,2.9-20.2,5.3-41.2,7.1-64.5,0-.3,0-.5,0-.8,0-.3,0-.6,0-.9,1.5-18.8,2.6-39,3.6-61.9,0-.4,0-.9,0-1.3h0c.6-15.3,1.1-30,1.5-44.2.2-5,.3-10,.5-14.9,0-.5,0-1,0-1.5.6-18.7,1.3-38.5,2.6-57.1,0-.3,0-.5,0-.8,0-.2,0-.4,0-.6,1.7-24.2,4.2-42.6,7.7-58.1h0c0-.4.1-.8.2-1.1,6.1-26.1,15.7-44.1,29.3-54.9l2.3-1.8-25.9-94.9-4.6,1.8c-36.2,14.6-72.5,24.7-108,30.1,10.7-17.1,17.1-33.9,19-50.3,3.3-28.1-7.4-53.9-30.1-72.7-12.6-10.4-26.8-14.8-42.3-13.1-36.9,4.1-71.4,42.8-84.2,58.8,0-5.4-.1-9.5-.2-12.3h1.6c5.7,0,10.3-4.6,10.3-10.3v-32.1c0-5.7-4.6-10.3-10.3-10.3h-53.3c-.2-.5-.5-.9-.8-1.3l-21.6-23.5c-3.8-4.1-9.1-6.4-14.7-6.4h-64.6l-11.5-12.3h-4.6v-33.1l37.4,27.2c1.2.9,2.9.9,4.1,0,1.2-.9,1.8-2.5,1.3-3.9l-19.9-61.1,52-37.8c1.2-.9,1.8-2.5,1.3-3.9s-1.8-2.4-3.4-2.4h-64.3l-19.9-61.1c-.5-1.5-1.8-2.4-3.4-2.4s-2.9,1-3.4,2.4l-19.9,61.1h-64.3c-1.5,0-2.9,1-3.4,2.4s0,3,1.3,3.9l52,37.8-19.9,61.1c-.5,1.5,0,3,1.3,3.9.6.4,1.3.7,2.1.7s1.5-.2,2.1-.7l37.4-27.2v33.1h-4.9l-11.5,12.3h-66.6c-5.6,0-10.9,2.3-14.7,6.4l-21.6,23.5c-.4.4-.6.8-.8,1.3h-55c-5.7,0-10.3,4.6-10.3,10.3v32.1c0,5.7,4.6,10.3,10.3,10.3h3.3c-.1,3-.2,7.8-.2,14-11.6-14.7-47.3-56.2-85.6-60.5-15.4-1.7-29.7,2.7-42.3,13.1-22.7,18.7-33.4,44.5-30.1,72.7,1.9,16.3,8.3,33.2,19,50.3-35.5-5.4-71.8-15.5-108-30.1l-4.6-1.8-25.9,94.9,2.3,1.8c13.2,10.5,22.6,27.6,28.7,52.5v.6c.3.4.4.8.5,1.2,3.8,15.9,6.3,34.9,8.1,59.8v1.5c1.4,19,2.2,39.5,2.8,58.8v1.6c.2,5,.4,10.1.5,15.2.4,14.6.9,29.7,1.6,45.3h0c0,.6,0,1,0,1.5h0c1,24,2.2,44,3.8,63,0,.3,0,.6,0,.9,0,.3,0,.6,0,.9,2,24.3,4.6,46.5,8,68.1v.3c0,.2.1.5.2.7,3.4,21.6,7.5,42.5,12.4,62.3-39,.6-77.9,1.4-116.8,2.2l160,2.7c246.8,3.3,495.2,2.9,741.8-1.1h.5c0,.1,0,0,0,0,38.5-.6,77-1.3,115.4-2.1-38-.8-76.2-1.4-114.3-2,5.4-21.9,9.8-45.1,13.3-68.8ZM703.9,294.6c9.9-12.8,45.1-55,81.8-59.1,13.5-1.5,25.9,2.4,37,11.5,20.8,17.2,30.6,40.7,27.6,66.4-3.3,28.1-20.8,58-52.2,88.8-34.2,33.6-84.1,67.2-148.4,100.1,8-11.8,13.3-24.5,17.7-35.7,2-4.5,3.9-9.1,5.7-13.9,10.4-6.5,21.5-12.7,33.3-19.4,43.3-24.4,92.4-52,112.8-98.4,7.7-15.8,6.2-36-3.6-50.3-8.1-11.8-20.7-17.8-34.6-16.6-4.7.4-9.5,1.8-14.4,4.1-12.9,6.1-31.3,17.8-33.4,19.2-12.5,8.1-17.8,9.6-28.9,4.6-.4-.2-.5-.5-.5-.6,0-.2,0-.5.2-.7ZM515.3,584.6c13,0,26.1-2.1,38.5-6.2,2.2-.7,4.4-1.5,6.5-2.3.3,1.2.4,2.3.4,3.5,0,14.8-22.1,27.4-48.3,27.4s-48.3-12.5-48.3-27.4.4-3.7,1.1-5.6c3.8,1.6,7.7,3.1,11.7,4.4h0c12.4,4.1,25.4,6.2,38.5,6.2ZM551.5,571.7c-23.4,7.8-49.1,7.8-72.5,0-35.6-11.9-65.2-34.9-87.9-68.5-18.3-27-32.3-60.8-41.6-100.6-13.8-59-12.9-113.8-12.4-127.6h356.5c.5,13.8,1.4,68.5-12.4,127.5-3.9,16.7-8.6,32.4-14.2,46.9-1.6,3.5-3.2,7.5-4.8,11.8-.4.9-.7,1.9-1.1,2.8-6.3,14.3-13.5,27.4-21.5,39.2-22.8,33.6-52.4,56.6-88,68.5ZM353.9,443.3c-8.8-5.3-18.1-10.5-27.7-16-25.3-14.2-52.7-29.6-74.7-49.2.5,0,.9,0,1.4,0,28.1,0,56-3,83.1-9,1.7,11.3,3.9,23,6.7,34.9,3.2,13.8,7,26.8,11.3,39.2ZM694.6,369.4c26.6,5.8,54.1,8.7,81.8,8.7.4,0,.9,0,1.3,0-22.1,19.5-49.4,34.9-74.7,49.2-9,5.1-17.7,10-26,14.9,4.2-12.1,7.8-24.8,10.9-38.1,2.8-11.8,4.9-23.4,6.6-34.6ZM700.6,302c.3.2.5.3.8.4,14,6.3,22,3.7,35.7-5.1,7.3-4.7,22.4-13.9,32.6-18.7,4.1-1.9,8.2-3.1,12-3.4,11.5-1,21.5,3.8,28.2,13.5,8.5,12.3,9.7,29.7,3,43.3h0c-6.1,14-15,26.2-25.7,37.2-31,.9-61.7-2-91.3-8.5,3.1-22.7,4.3-43.1,4.7-58.7ZM469,160.7l17.3-53.3c.5-1.5,0-3-1.3-3.9l-45.3-32.9h56c1.5,0,2.9-1,3.4-2.4l17.3-53.3,17.3,53.3c.5,1.5,1.8,2.4,3.4,2.4h56l-45.3,32.9c-1.2.9-1.8,2.5-1.3,3.9l17.3,53.3-34.2-24.9s0,0,0,0l-11.1-8.1c-.2-.1-.3-.2-.5-.3,0,0-.2,0-.3-.1,0,0-.2,0-.2-.1-.1,0-.2,0-.3,0,0,0-.1,0-.2,0-.1,0-.2,0-.3,0,0,0-.1,0-.2,0s0,0,0,0c-.1,0-.2,0-.3,0,0,0-.2,0-.2,0-.1,0-.2,0-.3,0,0,0-.2,0-.2,0,0,0-.2,0-.3.1,0,0-.2,0-.2.1,0,0-.2,0-.2.2,0,0-.2,0-.2.1l-45.3,32.9ZM524,140.5v38.2h-15.1v-38l7.6-5.7,7.5,5.5ZM409.3,202.3c2.4-2.7,5.9-4.2,9.5-4.2h192.9c3.6,0,7.1,1.5,9.5,4.2l18.4,20h-248.7l18.4-20ZM326.7,267.9c-1.8,0-3.3-1.5-3.3-3.3v-32.1c0-1.8,1.5-3.3,3.3-3.3h375.4c1.8,0,3.3,1.5,3.3,3.3v32.1c0,1.8-1.5,3.3-3.3,3.3h-375.4ZM329.9,301c.4,15.6,1.6,36.4,4.7,59.5-30.1,6.7-61.2,9.6-92.6,8.8-10.7-10.9-19.6-23.1-25.7-37.1h0c-6.6-13.8-5.4-31.2,3-43.4,6.7-9.7,16.7-14.6,28.2-13.5,3.9.3,7.9,1.5,12,3.4,10.2,4.8,25.3,14,32.6,18.7,13.7,8.8,21.6,11.4,35.7,5.1.8-.4,1.6-.9,2.2-1.5ZM178.8,313.4c-3-25.7,6.8-49.3,27.6-66.4,9.5-7.9,20.1-11.8,31.4-11.8s3.7.1,5.6.3c36.8,4.1,71.9,46.3,81.8,59.1.2.3.2.5.2.7,0,.2-.2.5-.5.6-11.1,5-16.4,3.4-28.9-4.6-2.1-1.3-20.4-13.1-33.4-19.2-4.9-2.3-9.7-3.7-14.4-4.1-13.9-1.2-26.5,4.8-34.6,16.6-9.8,14.3-11.3,34.5-3.6,50.3,20.4,46.5,69.5,74.1,112.8,98.4,11.8,6.6,23,12.9,33.4,19.4,1.4,3.3,2.9,7,4.5,10.9,4.7,11.8,10.2,25.7,18.9,38.6-64.3-32.9-114.1-66.5-148.4-100.1-31.4-30.8-48.9-60.7-52.2-88.8ZM130.4,863.2c-5-20.1-9.3-41.5-12.8-63.6v-.5c-.1-.2-.1-.3-.2-.5-3.3-21.3-5.9-43.4-7.9-67.3,0-.3,0-.7,0-1,0-.3,0-.5,0-.9-1.6-18.9-2.8-38.7-3.8-62.5h0c0-.6,0-1.2,0-1.7-.6-15.5-1.1-30.5-1.5-45.1-.2-5.1-.3-10.2-.5-15.3v-1.6c-.7-19.4-1.4-39.9-2.8-59.1v-1.5c-1.9-25.4-4.5-44.8-8.4-61.2,0-.4-.2-.7-.3-1.1v-.2c-6.3-25.7-16-44-29.7-55.9l21.8-79.8c38,14.9,76.1,25,113.3,30,7.8,10.8,17.4,21.8,28.6,32.9.6.6,1.1,1.1,1.7,1.7-30.5-2.8-60.7-8.4-90.2-16.6-11.4-3.1-22.7-6.7-34-10.5l-.9,3.1-8.5,29.8-.4,1.5s1,1.5,1,1.5c17,23.2,24.3,51.7,28.6,79.7,7.5,52.7,6.8,106.2,9.6,159.5,1.1,24.2,2.6,48.8,5,72.8,4.4,44.9,11.7,89.7,24.6,132.9-10.7.2-21.4.3-32.1.5ZM420.7,711.7c0,8.4-6.8,15.2-15.2,15.2h-211.3c-8.4,0-15.2-6.8-15.2-15.2v-37.8c0-8.4,6.8-15.2,15.2-15.2h211.3c8.4,0,15.2,6.8,15.2,15.2v37.8ZM194.2,735.3h17.1c-25.4,16.6-45.6,29.7-62.5,40.6-.7-5.9-1.3-11.8-1.9-17.7-1.4-14.2-2.4-28.5-3.3-42.8,8.3-3.6,17.3-7.6,27-11.8v8.1c0,13,10.6,23.6,23.6,23.6ZM221,735.3h62.7c-57.9,49.8-97.6,84-124.7,107.5-4.2-21.1-7.4-42.3-9.9-63.7,21.8-13.2,45.4-27.7,71.9-43.9ZM412.6,651.4c-2.2-.7-4.6-1.1-7.1-1.1h-5.6c22.5-18.3,40-32.6,49.4-40.3-5.6,6.3-18.9,21.4-36.7,41.4ZM382.7,650.3h-23.4c27.1-16.7,54.4-33.4,81.3-49.7-10.6,9.1-31.7,27.3-57.9,49.7ZM355.1,641.1c-4.6,3-9.3,6.1-14.2,9.3h-48.1c51.2-22.3,103.3-44.9,144.9-63-31.2,20.2-59,38.3-82.7,53.7ZM273.8,650.3h-79.7c-13,0-23.6,10.6-23.6,23.6v24.7c-9.2,4.3-18.3,8.6-27.2,12.7-1-18.2-1.8-36.4-2.3-54.6,89.8-24.5,191.3-52.8,281-77.8l8.8-2.5c-11.2,5.4-78.8,37.2-157.1,73.8ZM163.4,862.7c-1.6-7-3.4-15.3-3.7-16.8,35.2-28.8,88.4-72.1,135.7-110.6h42.8c-51.3,57.9-91.8,103.5-112.3,126.6-20.9.3-41.7.5-62.6.8ZM233.4,861.8c20-20.7,58.7-62.1,118.2-126.5h26.7c-22.6,32.9-46.2,67.4-65,94.8l-21.3,31.1c-19.5.2-39,.4-58.5.6ZM374.5,844.8v15.8c-5.8,0-11.5,0-17.3.1l.6-2.2.5-1c.4-.7.7-1.4,1.1-2h0v-10.6c0-2.6.4-5.1,1.3-7.4l2.6-5-.9-.5c-1.1,1.6-2,3.3-2.6,5.1l-3.7,7.2c-2.5,4.8-5,9.7-7.5,14.5l-1.8,2c-15.6.1-31.1.2-46.6.4,18-25.1,44.9-62.4,71.4-99.4,6.4-8.9,12.8-17.8,19-26.4h14.8c2.6,0,5.1-.4,7.4-1.2-16.6,32.1-33.4,64.9-50.4,97.7l.9.5c3.1-4.4,7.8-7.8,13.7-9.7h.2c0,0,0-.2,0-.2.6-1,1.1-2,1.7-3.1.6-1.1,1.1-2.1,1.7-3.2h0v-7c0-9.4,5.9-17.7,15.3-21.6h.2c0,0,0-.2,0-.2,16.9-31.1,33.6-61.9,49.8-91.9l23.2-42.8h0v-1.7h-.1c-2.9-3.1-5.4-6.5-7.5-10.1l-.5-.8-24.6,47.7c-2.5,4.9-5.1,9.9-7.7,14.9v-20.9c17.3-24.1,29.4-40.8,31.1-43.2l.2-.2v-.3c-2.4-4.3-4-9-4.9-13.8l-.2-1.2-.7,1c-3.3,4.7-13.6,19.6-27.6,40.1-1.1-2.3-2.5-4.5-4.2-6.3,7-7.6,13.1-14.2,18-19.6,8.6-9.4,13.8-15.1,14.3-15.5l.2-.2v-.2c-.4-2.4-.6-4.9-.6-7.3s.1-3.7.3-5.8v-.2s-.1-.2-.1-.2c-.7-.6-1.3-1.3-2-2.1l-.4-.4h0c-2.6-3-4.9-6.2-6.5-9.6h0c-1.9-3.7-3.1-7.5-3.7-11.5v-.5c-.3-1.6-.4-3.2-.5-4.9v-.3s-.3-.1-.3-.1c-2.2-1.2-4.5-2.5-6.9-4h0s-1-.6-1-.6c-4.2-2.6-8.4-5.4-12.5-8.3h-.2c0-.1-138.8,42.9-138.8,42.9-36.3,10.8-73.2,22.2-108.7,33.2-10.8,3.4-21.6,6.7-32.4,10.1-.1-3.6-.2-7.1-.3-10.7-.4-12.5-.8-26.8-1.2-41.6,51.3-6.5,103.3-13.3,153.7-19.9,40.6-5.3,82.6-10.8,123.9-16.1l1.2-.2-1-.7c-3.8-3-7.7-6.2-11.5-9.6l-.2-.2h-.2c-37.4,6-75.4,12.1-112.2,18.1-50.4,8.1-102.5,16.5-153.9,24.6-.5-17.2-1.2-34.9-2.3-51l264.1,4-.9-.9c-3.3-3.2-6.7-6.8-10.1-10.6l-.2-.2-253.2,3.9c-.4-5.8-.9-11.3-1.4-16.5-1.2-11.8-2.6-23.7-4.7-35.6l252.7,40.1-1.1-1.1s0,0-.1-.2h-.2c-8.6-4.4-17.5-9-26.4-13.6h0c0,0-225.6-28.9-225.6-28.9-4.1-21.4-10.5-42.3-21.6-60.9l195.5,60.2-3.2-2c-7.1-4.4-14.3-9.1-21.3-13.9h0c0,0-173.1-47.9-173.1-47.9-1.5-2.3-3-4.5-4.7-6.7.7-2.6,5.4-20.7,6.5-25.3,9.4,2.8,18.9,5.3,28.5,7.6,30.1,7.1,60.9,11.4,91.8,12.1,37.2,35.9,91.8,71.7,162.3,106.5l1.4.7c18.5,24.3,40.8,42.5,66.6,54.6-1.1,2.7-1.6,5.6-1.6,8.4,0,9.2,5.6,17.5,14.8,23.6-1.4,3.9-2.1,7.9-2.1,11.9,0,11.7,5.7,22.2,14.8,29.4v61.3c0,2.8-.7,5.5-2.2,7.9l-12,20.3c-2,3.4-3.1,7.3-3.1,11.3v16.8h-16c-4.9,0-9,4-9,9v29.2h-33.6c-7.3,0-12.7,3.9-12.7,9v26.6h-6.8c-8.4,0-14.5,3.8-14.5,9ZM536.7,717l12,20.3c1.4,2.4,2.2,5.1,2.2,7.9v16.8h-77.2v-16.8c0-2.8.7-5.5,2.2-7.9l12-20.3c2-3.4,3.1-7.3,3.1-11.3v-57c6.3,3.3,13.6,5.2,21.3,5.2s15-1.9,21.3-5.2v57c0,4,1.1,7.8,3.1,11.3ZM581.8,800.2h-133.1v-29.2c0-1.3,1.1-2.4,2.4-2.4h128.4c1.3,0,2.4,1.1,2.4,2.4v29.2ZM588.4,806.8h33.6c4,0,6.2,1.8,6.2,2.4v24.8h-225.8v-24.8c0-.6,2.2-2.4,6.2-2.4h179.9ZM649.5,860.4c-89.5-.4-179-.4-268.4.1v-15.7c.3-.7,3-2.5,7.9-2.5h252.6c4.8,0,7.6,1.7,7.9,2.4v15.6ZM656.1,860.4v-15.7c0-5.2-6.1-9-14.5-9h-6.8v-26.6c0-5.1-5.5-9-12.7-9h-33.6v-29.2c0-5-4-9-9-9h-21.9v-16.8c0-4-1.1-7.8-3.1-11.3l-12-20.3c-1.4-2.4-2.2-5.1-2.2-7.9v-61.3c9-7.1,14.8-17.7,14.8-29.4s-.5-7-1.5-10.3l-6.3,1.9c.8,2.7,1.2,5.5,1.2,8.4,0,17.8-16.2,32.3-36.1,32.3s-36.1-14.5-36.1-32.3.4-5.8,1.3-8.6c9.4,4.7,21.5,7.4,34.8,7.4,31.1,0,55.4-15.1,55.4-34.4s-.3-4.1-.9-6.1c28.4-12.1,52.7-31.5,72.5-57.9,69.8-34.5,124-70.1,161.1-105.7,33.5.3,56.2-3.9,89.6-11.7,10.4-2.4,20.8-5.2,31-8.2,1.6,6.3,5.2,20.1,6.5,25-2.6,3.5-5,7.1-7.2,10.8-61.4,17.1-123.2,33.9-177.9,48.8h-.4v.2c-7.4,4.9-15.2,9.8-23.2,14.6l-3.4,2.1,27.5-8.4c57.5-17.5,116.9-35.7,175.4-53.9-9.8,17.8-15.9,38.1-19.8,59.1-63.6,8.4-128.2,16.3-190.8,24-12.6,1.6-25.3,3.1-37.9,4.7h-.2c-6.7,3.6-13.5,7-20.3,10.4h-.1c0,0,0,.1,0,.1-.8,1-1.5,1.9-2.3,2.9l-.8,1,1.3-.2c20.9-3.3,41.8-6.5,62.7-9.7,61.6-9.5,125.2-19.4,187.9-29.6-2.9,16.6-4.5,33.6-5.6,50.1l-251.5-4h-.2s-.2.2-.2.2c-3.2,3.6-6.6,7.2-10.2,10.7l-.9.9,262.8-4.2c-.5,8.6-1,17.1-1.4,25.3-.3,8-.6,16-.8,24.2l-263.8-42h-.2s-.2.1-.2.1c-3.7,3.4-7.5,6.6-11.4,9.7l-.9.7,276.4,35.2c-.5,16.8-1,33.8-1.5,50.8-33.8-10.5-68-21.2-101.1-31.6-57-17.8-116-36.3-174.1-54h-.2c0,0-.2,0-.2,0-3.9,3-8,5.9-12.2,8.6l-.9.6h0c-3.3,2.1-6.7,4.1-10.1,6-.8.4-1.5.9-2.3,1.3,0,0-.1,0-.2,0-1.3.7-2.7,1.4-4,2.1h-.3c0,.1,0,.4,0,.4-.1,1.6-.4,3.2-.8,5,0,.4-.2.8-.3,1.3h0c-.9,3.2-2.1,6.3-3.8,9.2-.3.5-.6,1-.9,1.4-1.5,2.4-3.3,4.8-5.4,7.1-.3.3-.6.6-.8.9l-1-1.4.4,2-.2.2.2.2c1,5.4.7,10.5-.9,14.2h0s0,0,0,0c-.1.3-.2.6-.4.9v.3c-.1,0,0,.2,0,.2,0,0,0,0,0,0,0,.2,0,.5-.1.7h0c-1.1,5.2-2.9,10.1-5.5,14.6v.2c-.1,0-.1,0-.1,0l-.4.7c-2.1,3.6-4.6,6.9-7.5,9.9h-.1v4.8l37.3,95.2h0c0,.1.1.2.1.2,6.7,4.5,10.7,11.9,10.7,19.9v7.5l2.6,6.8h10.9l-53.1-144,37.5,69v1.4c0,8.8,4.8,16.4,11.9,20.5l69.7,128.4c-9,0-18-.1-26.9-.2ZM575.1,614.1l37.3,39.8c-2.2,1.4-4.2,3.1-5.8,5.2-14.1-20.1-25.4-36.2-31.5-44.9ZM601.7,669.7c-.2,1.4-.4,2.8-.4,4.2v11l-28.4-54.9c5.4,7.4,15.7,21.6,28.8,39.7ZM630.7,619.7c16.4,10.5,32.9,20.8,48.7,30.6h-22.9c-28.6-24.5-51.7-44.2-61.3-52.5,11.9,7.2,23.8,14.6,35.6,21.9ZM606.6,589.9l139.2,60.4h-47.4c-5-3.3-10-6.6-15-9.9-25.1-16.6-51.1-33.8-76.8-50.5ZM638.8,650.3h-13.8c-3.9-4.3-7.7-8.7-11.6-13-8.5-9.5-16.8-18.8-24.9-28,8.6,7,28,22.8,50.3,40.9ZM609.7,673.9c0-8.4,6.8-15.2,15.2-15.2h211.3c8.4,0,15.2,6.8,15.2,15.2v37.8c0,8.4-6.8,15.2-15.2,15.2h-211.3c-8.4,0-15.2-6.8-15.2-15.2v-37.8ZM820.1,735.3c21.1,12.7,41.2,24.7,61.3,37-2.2,21.1-5.1,42.1-8.8,63l-8.4-7.2c-10.9-9.3-21.7-18.5-32.3-27.6-5.3-4.5-35.9-30.6-76.2-65.1h64.4ZM831,735.3h5.3c13,0,23.6-10.6,23.6-23.6v-11.9l26.3,11.4c-1,18.9-2.4,37.8-4.3,56.6-16.9-10.9-34-21.8-51-32.5ZM859.9,694.7v-20.8c0-13-10.6-23.6-23.6-23.6h-71.1l-163.4-76.6c9,2.5,18.1,5,27.1,7.5,19.8,5.5,40.2,11.2,60.3,16.7,42.6,11.7,86,23.8,127.9,35.5,23.4,6.5,47.5,13.3,71.3,19.9-.5,18.1-1.1,36.1-1.9,53.8l-26.5-12.4ZM692.2,860.6l-64.8-125.3h21.9c33.9,46.8,70.3,97.1,91,125.7-16-.1-32.1-.3-48.1-.4ZM748.3,861.1c-17.8-25.4-53.4-76.2-88.1-125.7h28.8l18.2,19.4c30.9,33.1,64.1,68.1,101.2,107-20-.2-40-.4-60.1-.6ZM899.3,861.3l-.4,1.5c-28.1-.4-56.3-.8-84.5-1.1-29.8-33-66-73.3-113.5-126.4h42.4c63.4,51.7,122,99.4,128.4,104.6l.6.5,1-4.7-.3-.3c4.1-16.1,7.5-32.4,10.2-48.8,3.1-17.8,5.4-35.7,7.3-53.6.8-7.6,1.6-16,2.2-23.6,2.5-36.1,4.6-75.2,5.7-111.3,2.8-55.5,2.3-136.9,37.3-181.7-.9-3.3-9.2-32-10-34.9,0,0-3.2,1.1-3.2,1.1-43.3,14.6-76.7,24-121.7,26.9.8-.8,1.6-1.5,2.4-2.3,11.3-11,20.8-22,28.6-32.9,37.2-5,75.3-15.1,113.3-30l21.8,79.8c-14,12.2-23.9,31.2-30.1,57.9-.1.4-.2.9-.3,1.3-3.6,15.9-6.1,34.8-7.9,59.3,0,.3,0,.5,0,.8,0,.2,0,.4,0,.6-1.3,18.9-2,38.8-2.7,57.6h0c0,.6,0,1,0,1.4-.2,4.9-.3,9.9-.5,14.9-.4,14.2-.9,28.9-1.5,43.9,0,.5,0,1,0,1.6-.9,22.7-2.1,42.9-3.5,61.6,0,.3,0,.5,0,.8,0,.3,0,.6,0,.9-1.8,23-4.2,43.9-7.1,63.9,0,.6-.2,1.2-.3,1.8v.2c-3.5,23.7-8,46.8-13.3,68.5Z"/>
  <polygon class="st5" points="218.1 700.9 212.3 700.9 212.3 683.9 214.6 683.9 214.6 676.2 202.4 676.2 202.4 683.9 204.6 683.9 204.6 700.9 202.4 700.9 202.4 708.6 225.8 708.6 225.8 698.6 218.1 698.6 218.1 700.9"/>
  <polygon class="st5" points="246.8 683.9 247.6 683.9 246.2 686.8 244.7 683.9 245.6 683.9 245.6 676.2 233.3 676.2 233.3 683.9 236.9 683.9 242.3 694.8 242.3 700.9 240.1 700.9 240.1 708.6 252.3 708.6 252.3 700.9 250.1 700.9 250.1 694.8 255.5 683.9 259 683.9 259 676.2 246.8 676.2 246.8 683.9"/>
  <polygon class="st5" points="280 683.9 280.8 683.9 278 689.7 276.5 689.7 276.5 683.9 278.8 683.9 278.8 676.2 266.6 676.2 266.6 683.9 268.8 683.9 268.8 700.9 266.6 700.9 266.6 708.6 278.8 708.6 278.8 700.9 276.5 700.9 276.5 695.1 278 695.1 280.8 700.9 280 700.9 280 708.6 292.3 708.6 292.3 700.9 288.7 700.9 284.5 692.4 288.7 683.9 292.3 683.9 292.3 676.2 280 676.2 280 683.9"/>
  <polygon class="st5" points="313.2 683.9 314.1 683.9 311.2 689.7 309.8 689.7 309.8 683.9 312 683.9 312 676.2 299.8 676.2 299.8 683.9 302 683.9 302 700.9 299.8 700.9 299.8 708.6 312 708.6 312 700.9 309.8 700.9 309.8 695.1 311.2 695.1 314.1 700.9 313.2 700.9 313.2 708.6 325.5 708.6 325.5 700.9 321.9 700.9 317.7 692.4 321.9 683.9 325.5 683.9 325.5 676.2 313.2 676.2 313.2 683.9"/>
  <polygon class="st5" points="333 683.9 335.2 683.9 335.2 700.9 333 700.9 333 708.6 356.4 708.6 356.4 698.6 348.7 698.6 348.7 700.9 343 700.9 343 695.1 351.9 695.1 351.9 687.4 343 687.4 343 683.9 348.7 683.9 348.7 686.2 356.4 686.2 356.4 676.2 333 676.2 333 683.9"/>
  <polygon class="st5" points="379.7 683.9 381.9 683.9 381.9 692.5 373.8 676.2 364 676.2 364 683.9 366.2 683.9 366.2 700.9 364 700.9 364 708.6 376.2 708.6 376.2 700.9 373.9 700.9 373.9 692.3 382.1 708.6 389.7 708.6 389.7 683.9 391.9 683.9 391.9 676.2 379.7 676.2 379.7 683.9"/>
  <polygon class="st5" points="671.1 700.9 668.9 700.9 668.9 695.1 677.9 695.1 677.9 687.4 668.9 687.4 668.9 683.9 674.6 683.9 674.6 686.2 682.4 686.2 682.4 676.2 658.9 676.2 658.9 683.9 661.2 683.9 661.2 700.9 658.9 700.9 658.9 708.6 671.1 708.6 671.1 700.9"/>
  <path class="st5" d="M708.6,708.6l4.8-4.8v-22.9l-4.8-4.8h-13.9l-4.8,4.8v22.9l4.8,4.8h13.9ZM705.6,698.9l-2,2h-4.1l-.7-.7,6.7-9.7v8.5ZM697.6,685.9l2-2h4.1l.2.2-6.3,9.1v-7.4Z"/>
  <path class="st5" d="M733.1,700.9h-2.2v-5.7h1.4l2.9,5.7h-.8v7.7h12.2v-7.7h-3.6l-2.9-5.7h1.6l4.8-4.8v-9.4l-4.8-4.8h-20.9v7.7h2.2v17h-2.2v7.7h12.2v-7.7ZM730.9,683.9h6l1.7,1.7-1.7,1.7h-6v-3.5Z"/>
  <polygon class="st5" points="761.8 708.2 762.3 708.6 772.8 708.6 777.5 703.8 777.5 692.2 772.8 687.4 763.8 687.4 762 685.7 763.8 683.9 769 683.9 769.8 684.7 769.8 686.2 777.5 686.2 777.5 676.2 769.8 676.2 769.8 676.6 769.4 676.2 758.9 676.2 754.1 681 754.1 690.4 758.9 695.1 767.9 695.1 769.8 697.1 769.8 698.9 767.9 700.9 762.7 700.9 761.8 700 761.8 698.6 754.1 698.6 754.1 708.6 761.8 708.6 761.8 708.2"/>
  <polygon class="st5" points="792.8 683.9 794.1 683.9 794.1 700.9 791.8 700.9 791.8 708.6 804 708.6 804 700.9 801.8 700.9 801.8 683.9 803 683.9 803 686.2 810.8 686.2 810.8 676.2 785.1 676.2 785.1 686.2 792.8 686.2 792.8 683.9"/>
  <g>
    <g>
      <path class="st4" d="M424.5,1149.9c5.3-3.8,10.4-7.6,15.5-11.5,9.3,1,18.6,1.7,27.8,2.3,2.5-2.1,4.9-4.1,7.3-6.2-2.2-2.3-4.4-4.7-6.5-7-5.7-.4-11.4-.8-17.1-1.3-1.2,1-2.5,2-3.7,3-.1,1.1-.2,2.2-.3,3.3-6.9-.6-13.8-1.4-20.6-2.3.8-6.6,1.6-13.1,2.5-19.7,2.5-1.9,5-3.8,7.4-5.8,15.4,1.8,30.9,3,46.3,3.6,4.2,4.6,8.6,9.1,13,13.7-.2,8.8-.4,17.6-.5,26.5-4.8,4.3-9.7,8.6-14.6,12.8-9.6-.4-19.1-1-28.7-1.8-2.6,2-5.2,4-7.8,6-.4,4.4-.8,8.8-1.2,13.2,9.8.9,19.7,1.6,29.6,2.1.1-2.2.2-4.4.3-6.6,7.3.4,14.6.6,22,.8-.2,8.8-.4,17.6-.5,26.5-25.3-.5-50.7-2.3-75.9-5.5,1.9-15.3,3.8-30.6,5.8-46Z"/>
      <path class="st4" d="M523.2,1188.2c-.4-22-.9-44.1-1.3-66.1,4.4-4.5,8.8-9.1,13-13.7,9.9-.4,19.9-1,29.8-1.9,1.2,1,2.4,2,3.6,3-.1-1.1-.2-2.2-.3-3.3,6.6-.6,13.2-1.3,19.8-2.2,1.1,8.8,2.2,17.5,3.3,26.3-6.9.9-13.7,1.6-20.6,2.3-.1-1.1-.2-2.2-.3-3.3-1.3-1-2.5-2-3.7-3-5.7.5-11.4.9-17.1,1.3-2.1,2.3-4.3,4.7-6.5,7,.1,2.2.2,4.4.3,6.6,11.6-.6,23.2-1.5,34.8-2.7,5.1,3.9,10.3,7.7,15.5,11.5,1.4,10.9,2.7,21.9,4.1,32.8-4.4,5-8.9,10-13.5,14.9-15.1,1.6-30.3,2.7-45.5,3.3-5.2-4.2-10.4-8.5-15.5-12.8ZM574.2,1172c-.2-2.2-.4-4.4-.6-6.6-2.6-2-5.2-4-7.8-6-7.2.6-14.4,1.1-21.5,1.4.2,4.4.5,8.8.7,13.2,2.6,2.1,5.1,4.1,7.7,6.2,4.9-.3,9.8-.7,14.8-1.1,2.3-2.4,4.5-4.8,6.8-7.2Z"/>
    </g>
    <g>
      <path class="st3" d="M424.5,1149.9c5.3-3.8,10.4-7.6,15.5-11.5,9.3,1,18.6,1.7,27.8,2.3,2.5-2.1,4.9-4.1,7.3-6.2-2.2-2.3-4.4-4.7-6.5-7-5.7-.4-11.4-.8-17.1-1.3-1.2,1-2.5,2-3.7,3-.1,1.1-.2,2.2-.3,3.3-6.9-.6-13.8-1.4-20.6-2.3.8-6.6,1.6-13.1,2.5-19.7,2.5-1.9,5-3.8,7.4-5.8,15.4,1.8,30.9,3,46.3,3.6,4.2,4.6,8.6,9.1,13,13.7-.2,8.8-.4,17.6-.5,26.5-4.8,4.3-9.7,8.6-14.6,12.8-9.6-.4-19.1-1-28.7-1.8-2.6,2-5.2,4-7.8,6-.4,4.4-.8,8.8-1.2,13.2,9.8.9,19.7,1.6,29.6,2.1.1-2.2.2-4.4.3-6.6,7.3.4,14.6.6,22,.8-.2,8.8-.4,17.6-.5,26.5-25.3-.5-50.7-2.3-75.9-5.5,1.9-15.3,3.8-30.6,5.8-46Z"/>
      <path class="st3" d="M523.2,1188.2c-.4-22-.9-44.1-1.3-66.1,4.4-4.5,8.8-9.1,13-13.7,9.9-.4,19.9-1,29.8-1.9,1.2,1,2.4,2,3.6,3-.1-1.1-.2-2.2-.3-3.3,6.6-.6,13.2-1.3,19.8-2.2,1.1,8.8,2.2,17.5,3.3,26.3-6.9.9-13.7,1.6-20.6,2.3-.1-1.1-.2-2.2-.3-3.3-1.3-1-2.5-2-3.7-3-5.7.5-11.4.9-17.1,1.3-2.1,2.3-4.3,4.7-6.5,7,.1,2.2.2,4.4.3,6.6,11.6-.6,23.2-1.5,34.8-2.7,5.1,3.9,10.3,7.7,15.5,11.5,1.4,10.9,2.7,21.9,4.1,32.8-4.4,5-8.9,10-13.5,14.9-15.1,1.6-30.3,2.7-45.5,3.3-5.2-4.2-10.4-8.5-15.5-12.8ZM574.2,1172c-.2-2.2-.4-4.4-.6-6.6-2.6-2-5.2-4-7.8-6-7.2.6-14.4,1.1-21.5,1.4.2,4.4.5,8.8.7,13.2,2.6,2.1,5.1,4.1,7.7,6.2,4.9-.3,9.8-.7,14.8-1.1,2.3-2.4,4.5-4.8,6.8-7.2Z"/>
    </g>
    <g>
      <path class="st1" d="M424.5,1149.9c5.3-3.8,10.4-7.6,15.5-11.5,9.3,1,18.6,1.7,27.8,2.3,2.5-2.1,4.9-4.1,7.3-6.2-2.2-2.3-4.4-4.7-6.5-7-5.7-.4-11.4-.8-17.1-1.3-1.2,1-2.5,2-3.7,3-.1,1.1-.2,2.2-.3,3.3-6.9-.6-13.8-1.4-20.6-2.3.8-6.6,1.6-13.1,2.5-19.7,2.5-1.9,5-3.8,7.4-5.8,15.4,1.8,30.9,3,46.3,3.6,4.2,4.6,8.6,9.1,13,13.7-.2,8.8-.4,17.6-.5,26.5-4.8,4.3-9.7,8.6-14.6,12.8-9.6-.4-19.1-1-28.7-1.8-2.6,2-5.2,4-7.8,6-.4,4.4-.8,8.8-1.2,13.2,9.8.9,19.7,1.6,29.6,2.1.1-2.2.2-4.4.3-6.6,7.3.4,14.6.6,22,.8-.2,8.8-.4,17.6-.5,26.5-25.3-.5-50.7-2.3-75.9-5.5,1.9-15.3,3.8-30.6,5.8-46Z"/>
      <path class="st1" d="M523.2,1188.2c-.4-22-.9-44.1-1.3-66.1,4.4-4.5,8.8-9.1,13-13.7,9.9-.4,19.9-1,29.8-1.9,1.2,1,2.4,2,3.6,3-.1-1.1-.2-2.2-.3-3.3,6.6-.6,13.2-1.3,19.8-2.2,1.1,8.8,2.2,17.5,3.3,26.3-6.9.9-13.7,1.6-20.6,2.3-.1-1.1-.2-2.2-.3-3.3-1.3-1-2.5-2-3.7-3-5.7.5-11.4.9-17.1,1.3-2.1,2.3-4.3,4.7-6.5,7,.1,2.2.2,4.4.3,6.6,11.6-.6,23.2-1.5,34.8-2.7,5.1,3.9,10.3,7.7,15.5,11.5,1.4,10.9,2.7,21.9,4.1,32.8-4.4,5-8.9,10-13.5,14.9-15.1,1.6-30.3,2.7-45.5,3.3-5.2-4.2-10.4-8.5-15.5-12.8ZM574.2,1172c-.2-2.2-.4-4.4-.6-6.6-2.6-2-5.2-4-7.8-6-7.2.6-14.4,1.1-21.5,1.4.2,4.4.5,8.8.7,13.2,2.6,2.1,5.1,4.1,7.7,6.2,4.9-.3,9.8-.7,14.8-1.1,2.3-2.4,4.5-4.8,6.8-7.2Z"/>
    </g>
  </g>
</svg>