<?xml version="1.0" encoding="UTF-8"?>
<svg id="Lag_1" xmlns="http://www.w3.org/2000/svg" version="1.1" viewBox="0 0 1000 1000">
  <!-- Generator: Adobe Illustrator 30.4.0, SVG Export Plug-In . SVG Version: 2.1.4 Build 226)  -->
  <defs>
    <style>
      .st0 {
        fill: #010101;
      }
    </style>
  </defs>
  <path class="st0" d="M508.89,473.35c-76.94,0-139.54,62.57-139.54,139.49s62.6,139.5,139.54,139.5,139.49-62.58,139.49-139.5-62.58-139.49-139.49-139.49ZM594.76,634.12c-.1.1-.2.19-.3.29h0s-85.6,85.61-85.6,85.61l-.59-.59-82.06-82.06-4.72-4.72.04-.04c-22.17-23.73-21.71-60.95,1.44-84.09,23.14-23.14,60.36-23.61,84.09-1.44l.04-.04,1.78,1.78c.1-.1.19-.2.29-.3,23.64-23.64,61.97-23.64,85.6,0,23.64,23.64,23.64,61.97,0,85.6Z"/>
  <g>
    <g>
      <path class="st0" d="M327.89,659.05l-1.86-10.02c-1.98-10.66,1.92-18.64,14.03-20.89,12.05-2.23,18.87,3.76,20.76,13.94l1.95,10.5-34.88,6.47ZM354.3,644.29c-1.04-5.63-4.41-9.16-12.66-7.63-8.3,1.54-9.86,5.99-8.82,11.61l.22,1.18,21.48-3.98-.22-1.18Z"/>
      <path class="st0" d="M322.13,613.27l.09-10.13,35.56-10.75-.08,8.93-8.19,2-.09,10.51,8.15,2.14-.08,8.66-35.37-11.37ZM342.9,612.15l.06-7.24-3.06.74c-3.5.9-7.7,1.78-11.41,2.68v.22c3.7.9,7.88,1.87,11.36,2.82l3.04.79Z"/>
      <path class="st0" d="M323.46,583.29l1.82-8.58,18.44-5.01c2.6-.73,5.61-1.26,8.56-1.75l.05-.21c-3.82-.36-8.92-.77-13.02-1.64l-11.68-2.47,1.66-7.84,34.71,7.34-1.8,8.53-18.45,5.06c-2.59.68-5.6,1.21-8.55,1.7l-.04.21c3.93.39,8.86.76,13.02,1.64l11.67,2.47-1.67,7.89-34.71-7.34Z"/>
      <path class="st0" d="M333.54,542.14l3.94-8.38,16.34,1.48c2.15.29,4.33.65,6.63,1.01l.09-.2c-1.74-1.54-3.43-2.94-5.01-4.46l-11.66-11.44,3.94-8.38,32.09,15.09-3.27,6.95-11.14-5.24c-3.15-1.48-8.33-4.7-11.29-6.57l-.09.19,7.13,6.6,9.79,9.9-2.04,4.34-13.85-1.27-9.59-1.37-.09.2c3.34,1.09,9.11,3.02,12.27,4.5l11.14,5.24-3.24,6.9-32.09-15.09Z"/>
      <path class="st0" d="M359.44,495.1l6.16-8.04,34.87,12.8-5.44,7.09-7.75-3.33-6.39,8.34,5.23,6.62-5.27,6.87-21.41-30.35ZM376.71,506.69l4.41-5.75-2.88-1.25c-3.33-1.39-7.22-3.2-10.72-4.72l-.13.17c2.41,2.94,5.17,6.23,7.38,9.09l1.96,2.46Z"/>
      <path class="st0" d="M378.42,472.21l9.73-8.65c5.62-4.99,12.08-7.24,17.76-.84,3.44,3.87,3.81,7.98,2.24,11.71l15.24,5.26-7.09,6.3-13.17-4.98-3.09,2.75,8.29,9.33-6.35,5.64-23.56-26.51ZM398.49,476.17c3.01-2.68,3.48-5.43,1.24-7.95-2.24-2.52-4.6-1.89-7.61.79l-2.89,2.57,6.37,7.16,2.89-2.57Z"/>
      <path class="st0" d="M408.26,447.43l7.34-4.28,7.09,12.14.14-.08,1.62-17.22,8-4.67-2.05,17.66,21.68,11.95-8,4.67-14.58-8.34-.7,6.47,4.7,8.05-7.34,4.28-17.88-30.63Z"/>
      <path class="st0" d="M450.47,459.11l2.39-6.67c3.09,1.22,6.72,1.21,9.55.22,3.03-1.07,4.02-2.69,3.39-4.49-.69-1.95-2.7-1.94-6.05-2.08l-4.92-.35c-4.03-.14-8.3-1.93-10-6.76-1.97-5.6,1.47-11.9,8.56-14.39,4.01-1.41,8.49-1.31,12.31.35l-2.34,6.65c-2.82-.8-5.44-.86-7.55-.11-2.47.87-3.72,2.41-3.1,4.15.69,1.95,3.03,1.88,6.43,2.01l4.76.23c4.74.18,8.19,2.09,9.83,6.76,1.97,5.6-.99,12.13-9.05,14.97-4.52,1.59-9.54,1.62-14.21-.49Z"/>
      <path class="st0" d="M487.91,416.42l8.46-.86,2.87,28.24,13.72-1.39.72,7.05-22.17,2.25-3.59-35.29Z"/>
      <path class="st0" d="M525.24,437.42l-9.14-23.6,9.03.6,2.47,8.08c.75,2.73,1.45,5.23,2.25,8.07h.22c1.16-2.69,2.36-5.07,3.46-7.68l3.51-7.69,8.81.58-12.17,22.19-.83,12.51-8.43-.56.83-12.51Z"/>
      <path class="st0" d="M554.12,417.32l8.23,2.11-3.49,13.62.16.04,13.25-11.11,8.97,2.3-13.87,11.12,7.02,23.73-8.97-2.3-4.52-16.17-5.04,4.11-2.31,9.02-8.23-2.11,8.81-34.36Z"/>
      <path class="st0" d="M591.44,428.26l7.65,3.7-6.12,12.65.15.07,15.19-8.27,8.34,4.03-15.8,8.15,2.18,24.65-8.34-4.03-1.22-16.75-5.76,3.03-4.06,8.39-7.65-3.7,15.44-31.93Z"/>
      <path class="st0" d="M625.52,446.3l18.04,13.36-4.22,5.69-11.21-8.3-3.96,5.34,9.59,7.1-4.22,5.69-9.59-7.1-4.51,6.09,11.65,8.63-4.22,5.69-18.48-13.68,21.11-28.5Z"/>
      <path class="st0" d="M652.45,467.66l5.87,6.15-20.53,19.61,9.52,9.97-5.12,4.89-15.39-16.11,25.65-24.5Z"/>
      <path class="st0" d="M673.57,491.45l5.01,6.87-28.66,20.91-5.01-6.87,28.66-20.91Z"/>
      <path class="st0" d="M668.83,515.09c10.5-5.44,20.2-1.51,24.56,6.91,2.38,4.6,2.25,8.84,1.1,12.19l-6.6-1.61c.6-2.27.52-4.32-.86-6.98-2.41-4.64-7.84-6.12-13.93-2.97-6.29,3.26-8.44,7.99-5.4,13.84.58,1.11,1.49,2.17,2.38,2.57l5.08-2.63-2.61-5.03,6.14-3.18,6.07,11.71-14.7,7.62c-3.26-1.07-6.95-4.06-9.26-8.52-4.51-8.71-2.61-18.41,8.04-23.92Z"/>
      <path class="st0" d="M672.22,550.86l6.54,2.74c-1.39,3.02-1.58,6.65-.73,9.53.9,3.09,2.46,4.16,4.3,3.62,1.99-.58,2.08-2.59,2.41-5.93l.61-4.89c.36-4.02,2.37-8.19,7.29-9.63,5.7-1.67,11.8,2.11,13.91,9.33,1.19,4.08.85,8.55-1.01,12.27l-6.52-2.69c.95-2.77,1.15-5.39.52-7.53-.73-2.51-2.2-3.84-3.98-3.32-1.99.58-2.04,2.92-2.35,6.31l-.49,4.74c-.43,4.73-2.53,8.06-7.28,9.45-5.7,1.67-12.06-1.64-14.46-9.85-1.35-4.6-1.11-9.61,1.25-14.16Z"/>
      <path class="st0" d="M704.95,585.84l-1.02-9.59,7.04-.75,2.94,27.57-7.04.75-1.02-9.59-28.22,3.01-.9-8.4,28.22-3.01Z"/>
      <path class="st0" d="M713.84,613.1l-1.57,22.39-7.06-.5.98-13.91-6.63-.47-.84,11.9-7.06-.5.84-11.9-7.55-.53-1.02,14.45-7.06-.5,1.61-22.93,35.38,2.49Z"/>
    </g>
    <g>
      <path class="st0" d="M381.77,744.71l6.99-1.18c.44,3.29,2.23,6.46,4.48,8.44,2.41,2.12,4.31,2.19,5.57.76,1.37-1.55.36-3.3-1.14-6.3l-2.1-4.46c-1.85-3.59-2.38-8.18,1-12.03,3.92-4.46,11.1-4.54,16.74.43,3.19,2.8,5.3,6.76,5.72,10.9l-6.95,1.22c-.69-2.85-1.91-5.17-3.59-6.64-1.96-1.73-3.92-2.06-5.14-.67-1.37,1.56-.16,3.56,1.39,6.59l2.13,4.27c2.16,4.22,2.19,8.16-1.09,11.88-3.92,4.46-11.06,5.08-17.49-.57-3.6-3.17-6.08-7.52-6.53-12.63Z"/>
      <path class="st0" d="M421.06,747.97l6.98,4.65-15.03,22.53-6.98-4.66,15.03-22.53ZM425.14,740.87c1.45-2.17,4.02-2.49,6.33-.95,2.31,1.54,3.01,4.04,1.56,6.21-1.48,2.22-4.05,2.54-6.36,1-2.31-1.54-3.01-4.04-1.53-6.26Z"/>
      <path class="st0" d="M426.36,767.94c3.85-7.94,11.18-10.32,16.22-7.88,2.7,1.3,3.84,3.07,4.67,5.35l1.51-3.75,3.97-8.19,7.6,3.68-16.6,34.27-6.23-3.02.6-2.61-.15-.07c-2.55.89-5.54.95-7.85-.17-6.03-2.92-7.6-9.67-3.75-17.62ZM439.84,780.1l4.7-9.71c-.68-1.6-1.91-2.68-3.14-3.27-2.16-1.05-5.02-.01-7.23,4.55-2.26,4.66-1.64,7.38.96,8.64,1.47.71,2.84.77,4.7-.21Z"/>
      <path class="st0" d="M456.47,781.82c2.38-8.44,9.93-11.91,16.17-10.15,7.55,2.13,9.68,8.62,7.68,15.7-.41,1.47-.96,2.79-1.32,3.48l-15.36-4.33c-.26,3.72,1.78,5.93,5.08,6.87,1.89.53,3.94.49,6.07-.04l1.25,5.62c-3.27,1.17-7.12,1.16-10.21.29-7.45-2.1-11.81-8.71-9.35-17.41ZM473.94,783.52c.72-2.57.12-4.83-2.82-5.66-2.31-.65-4.66.27-6.04,3.16l8.86,2.5Z"/>
      <path class="st0" d="M488.69,776.4l6.83.68.26,3.42.22.02c2.44-1.95,5.33-3.52,9.02-3.15,5.86.58,7.93,5.01,7.26,11.73l-1.66,16.69-8.4-.84,1.55-15.61c.37-3.74-.49-4.98-2.66-5.19-1.9-.19-3.13.62-4.96,1.97l-1.8,18.05-8.35-.83,2.68-26.94Z"/>
      <path class="st0" d="M544.04,798.98c6.82-9.07,11.77-16.38,10.81-21.07-.66-3.2-2.76-4.5-5.59-3.91-2.35.48-3.89,2.46-5.18,4.56l-5.15-3.39c2.54-4.41,5.31-6.93,10.11-7.92,6.72-1.38,12.26,1.99,13.59,8.51,1.25,6.08-3.18,12.72-7.75,19.44,1.73-.52,4.03-1.22,5.58-1.53l7.26-1.49,1.42,6.94-24.07,4.94-1.04-5.07Z"/>
      <path class="st0" d="M571.11,780.45c-4.31-11.01-1.83-18.41,5.17-21.16,7-2.74,13.87,1.06,18.16,12.01,4.29,10.96,1.93,18.67-5.07,21.41-7,2.74-13.97-1.31-18.26-12.27ZM587.04,774.21c-3.42-8.72-6.04-9.75-8.38-8.83-2.38.93-3.56,3.44-.15,12.17,3.4,8.67,6.11,10.07,8.49,9.14,2.33-.92,3.43-3.8.03-12.47Z"/>
      <path class="st0" d="M606.15,777.15l6.43-3.89-10.02-16.55-5.55,3.36-2.71-4.48c2.85-2.55,4.52-4.64,5.8-7.27l5.31-3.22,14.39,23.78,5.5-3.33,3.53,5.83-19.16,11.6-3.53-5.83Z"/>
      <path class="st0" d="M634.14,763.16l.1-6.71c1.72.24,4.12-.32,5.6-1.6,2.84-2.46,3.27-6.29-1.55-12.36.14,2.91-1.23,5.82-2.75,7.14-4.49,3.89-10.04,4.3-14.86-1.26-4.74-5.48-3.59-12.31,1.18-16.45,5.07-4.39,13.26-4.92,21.28,4.35,8.38,9.68,7.12,18.55,1.6,23.33-3.54,3.07-7.42,3.83-10.61,3.56ZM632.89,744.06c1.32-1.14,2.15-3.09,1.64-5.67-4.07-3.54-6.72-3.26-8.37-1.84-1.69,1.46-2.13,3.86.36,6.75,2.32,2.68,4.5,2.37,6.36.77Z"/>
    </g>
    <g>
      <g>
        <g>
          <g>
            <path class="st0" d="M487.12,940.74c-6.09.82-11.59,1.58-16.59,3.06-5.05,1.54-9.53,3.31-13.52,5.59-7.99,4.64-14.06,11.32-17.94,20.06,12.61,1.4,23.58-.83,32.27-6.62,4.13-2.74,7.48-5.88,10.1-9.59,2.62-3.76,4.49-7.91,5.68-12.49Z"/>
            <path class="st0" d="M516.05,944.52c-5.39,1.72-10.26,3.31-14.56,5.51-4.3,2.24-8.08,4.64-11.33,7.43-6.48,5.72-10.9,13.08-12.98,22.12,11.63-.57,21.19-4.39,28.15-11.33,3.28-3.27,5.8-6.82,7.57-10.79,1.76-4.01,2.79-8.33,3.14-12.94Z"/>
            <path class="st0" d="M521.57,944.65c5.74,1.84,10.97,3.55,15.51,5.81,4.55,2.29,8.52,4.71,11.89,7.49,6.7,5.67,11.05,12.86,12.77,21.51-12.66-.99-22.86-5-30.01-11.88-3.38-3.23-5.9-6.68-7.56-10.54-1.68-3.87-2.54-8.02-2.6-12.4Z"/>
            <path class="st0" d="M498.04,930.39c-3.99-10.29-9.23-17.78-15.83-22.65-6.6-5.16-14.55-7.52-24.38-8.04,2.96,10.51,7.88,18.88,14.74,23.9,3.41,2.53,7.28,4.61,11.54,5.66,4.28,1.05,8.95,1.43,13.93,1.13Z"/>
          </g>
          <g>
            <path class="st0" d="M448.5,937.41c-6.11-.17-11.72.24-16.88,1.19-5.11.74-9.78,2.05-14.02,3.96-8.48,3.84-15.15,9.46-20.03,17.9,6.16,1.4,11.99,1.98,17.53,1.36,5.51-.6,10.57-1.83,15.25-4.28,8.82-4.6,14.77-11.36,18.15-20.12Z"/>
            <path class="st0" d="M460.52,928.18c-2.81-10.65-7.19-18.41-13.19-24.27-6.02-5.62-13.62-9.18-23.36-10.59,1.72,10.9,5.79,19.33,11.98,25.42,6.23,5.76,14.56,9.28,24.57,9.45Z"/>
          </g>
          <g>
            <path class="st0" d="M410.52,929.61c-12.19-1.33-22.44-1.08-31.3,1.79-8.76,2.64-16.16,7.81-21.91,15.62,6,1.97,11.79,3.07,17.26,3.27,5.57,0,10.78-.87,15.65-2.61,9.22-3.44,15.96-9.77,20.3-18.07Z"/>
            <path class="st0" d="M423.46,921.87c-3.37-21.58-13.52-33.69-32.43-38.8.25,5.52,1.12,10.61,2.63,15.04,1.54,4.36,3.71,8.23,6.45,11.57,2.73,3.38,6.1,6.01,10.03,8.02,3.93,2.03,8.35,3.62,13.32,4.16Z"/>
          </g>
          <g>
            <path class="st0" d="M373.6,917.73c-6.04-1.22-11.46-2.35-16.7-2.56-5.25-.18-10.04-.04-14.57.84-4.54.89-8.77,2.42-12.72,4.64-3.89,2.14-7.5,4.93-10.77,8.47,5.63,2.89,11.38,4.37,16.81,5.14,5.42.8,10.75.42,15.8-.85,4.79-1.23,9.01-3.16,12.66-5.74,3.7-2.68,6.85-6.01,9.48-9.94Z"/>
            <path class="st0" d="M387.33,911.54c-.38-11.04-2.89-19.78-7.52-26.62-2.27-3.52-5.1-6.51-8.55-9-3.41-2.5-7.3-4.85-11.93-6.57-1.45,21.93,8.49,37.13,27.99,42.19Z"/>
          </g>
          <g>
            <path class="st0" d="M338.21,901.91c-5.72-2.15-11.17-3.55-16.33-4.36-5.09-.95-9.93-1.23-14.55-.78-9.25.85-17.4,4.05-24.73,10.48,10.68,6.72,21.68,9.13,31.89,7.84,9.83-1.54,17.66-5.98,23.72-13.18Z"/>
            <path class="st0" d="M352.59,897.13c.8-10.94-.81-19.79-4.56-27.28-3.9-7.25-9.93-13.11-18.73-17.64-1.91,10.93-.74,20.15,3.11,27.98,4.04,7.44,10.75,13.53,20.19,16.94Z"/>
          </g>
          <g>
            <path class="st0" d="M304.82,882.21c-11.09-5.16-20.87-8.25-30.19-8.36-9.14-.29-17.78,2.24-25.74,7.8,5.05,3.8,10.16,6.68,15.28,8.61,5.24,1.77,10.47,2.61,15.64,2.52,9.8-.25,18.24-4.11,25.01-10.56Z"/>
            <path class="st0" d="M319.59,879.1c3.82-21.52-1.97-36.29-18.3-47.24-1.5,5.3-2.3,10.4-2.28,15.09.06,4.64.87,9,2.4,13.04,1.48,4.09,3.8,7.69,6.91,10.84,3.08,3.14,6.72,6.12,11.27,8.26Z"/>
          </g>
          <g>
            <path class="st0" d="M273.7,859.11c-5.32-3.07-10.11-5.86-15-7.74-4.9-1.86-9.54-3.2-14.09-3.83-9.13-1.2-18.01.45-26.39,5.04,9.1,8.69,19.09,13.58,29.52,14.33,4.92.35,9.51-.11,13.81-1.41,4.37-1.36,8.41-3.49,12.15-6.39Z"/>
            <path class="st0" d="M288.69,857.64c3.17-10.55,3.6-19.68,1.36-27.64-2.1-8.12-6.97-14.9-14.51-21.34-4.07,10.16-5.23,19.8-2.84,27.96,1.13,4.11,2.94,8.09,5.67,11.6,2.73,3.45,6.19,6.6,10.31,9.42Z"/>
          </g>
          <g>
            <path class="st0" d="M245.2,832.86c-4.79-3.8-9.43-6.92-14.11-9.29-4.6-2.43-9.03-4.28-13.54-5.33-9.09-2.03-17.8-1.54-26.73,2.25,1.98,2.42,4.07,4.63,6.23,6.57,2.24,1.89,4.54,3.56,6.87,4.99,4.71,2.88,9.47,4.95,14.67,5.8,9.76,1.66,18.57-.06,26.62-4.99Z"/>
            <path class="st0" d="M260.35,832.87c4.26-10.16,5.45-18.98,4.26-27.32-.62-4.14-2.05-7.97-4.09-11.73-1.96-3.84-4.7-7.48-8.22-10.96-5.07,9.64-7.09,18.99-5.74,27.52,1.42,8.41,5.93,16.22,13.78,22.49Z"/>
          </g>
          <g>
            <path class="st0" d="M219.67,803.66c-17.62-16.8-34.27-23.46-52.84-17.83,6.95,10.48,15.98,17.06,25.78,20.11,9.57,2.67,18.58,1.79,27.06-2.28Z"/>
            <path class="st0" d="M234.72,805.31c2.6-4.78,4.46-9.38,5.62-13.81,1.24-4.49,1.72-8.8,1.48-12.93-.26-4.14-1.29-8.12-2.83-12.16-1.56-4.02-4.11-7.76-7.07-11.75-6.28,9.28-8.89,18.11-8.58,26.83.15,4.35,1.39,8.41,3.23,12.44.97,2.01,2.08,4,3.4,5.91,1.38,1.89,2.98,3.69,4.76,5.46Z"/>
          </g>
          <g>
            <path class="st0" d="M196.92,771.41c-1.98-2.32-3.98-4.47-6-6.46-1.98-1.98-3.88-3.86-5.9-5.53-3.93-3.34-8.13-5.93-12.26-7.88-8.22-4-17.13-5.13-26.63-3.21,3.07,5.48,6.54,10.15,10.42,13.96,4.06,3.72,8.49,6.6,13.24,8.58,8.99,3.75,18.3,3.68,27.13.55Z"/>
            <path class="st0" d="M211.62,774.67c12.41-18.1,13.06-33.99,2.52-50.77-7.16,8.59-10.84,17.2-11.27,25.81-.25,4.36.33,8.62,1.89,12.76,1.54,4.14,3.65,8.34,6.87,12.2Z"/>
          </g>
          <g>
            <path class="st0" d="M177.89,737.69c-13.79-20.08-28.86-29.84-48.25-27.91,2.52,5.7,5.53,10.68,9.04,14.83,3.52,4.14,7.79,7.37,12.33,9.81,8.57,4.61,17.72,5.51,26.89,3.27Z"/>
            <path class="st0" d="M192.18,742.4c7.17-8.37,11.32-16.6,12.37-24.79,1.43-8.39-.58-16.55-4.83-25.6-3.94,3.93-7.07,7.97-9.41,12.1-2.3,4.12-3.67,8.27-4.33,12.56-1.44,8.58.92,17.19,6.19,25.73Z"/>
          </g>
          <g>
            <path class="st0" d="M162.29,702.22c-11.77-21.3-25.89-32.42-45.4-32.25,3.95,11.81,10.17,20.82,18.95,26.45,4.1,2.66,8.34,4.47,12.71,5.45,4.47.92,9.06,1.03,13.74.35Z"/>
            <path class="st0" d="M176.09,708.3c7.95-7.63,12.75-15.4,14.68-23.51,2.17-8.2,1.01-16.56-2.42-26.01-8.53,7.07-14.06,14.95-15.99,23.27-.99,4.19-1.34,8.55-.68,12.94.68,4.37,2.19,8.8,4.41,13.3Z"/>
          </g>
          <g>
            <path class="st0" d="M150.11,665.45c-9.72-22.32-22.79-34.6-42.25-36.15,2.87,12.07,8.25,21.59,16.46,27.96,7.64,6.05,16.27,8.71,25.79,8.19Z"/>
            <path class="st0" d="M163.31,672.79c8.64-6.85,14.08-14.14,16.78-22.05,2.92-7.99,2.51-16.46-.08-26.22-9.13,6.3-15.33,13.65-18.03,21.79-1.35,4.08-2.05,8.4-1.86,12.83.31,4.4,1.38,8.97,3.19,13.65Z"/>
          </g>
          <g>
            <path class="st0" d="M141.34,627.76c-2.12-5.77-4.05-10.97-6.63-15.48-2.49-4.57-5.49-8.46-8.56-11.77-6.27-6.62-14.2-10.8-23.74-12.33.9,6.11,2.5,11.64,4.75,16.52,2.29,4.88,5.53,9.1,9.22,12.65,3.55,3.34,7.4,5.86,11.52,7.59,4.22,1.71,8.69,2.64,13.43,2.82Z"/>
            <path class="st0" d="M153.83,636.24c9.19-6.05,15.32-12.84,18.66-20.52,3.65-7.73,3.89-16.27,2.18-26.25-4.84,2.77-8.91,5.84-12.28,9.22-3.31,3.4-5.74,7.06-7.51,11.01-1.73,3.94-2.85,8.18-2.99,12.61-.09,4.44.57,9.08,1.95,13.92Z"/>
          </g>
          <g>
            <path class="st0" d="M135.88,589.42c-.64-2.98-1.77-5.65-2.4-8.75-.68-2.79-1.46-5.28-2.36-7.67-1.8-4.81-4.1-8.97-6.86-12.54-5.51-7.13-12.97-11.79-22.3-14.03.54,11.46,3.96,21.03,10.27,28.75,1.5,1.79,3.11,3.47,4.81,4.95.85,1.01,1.72,2.24,2.66,3.1,1.01.84,2.02,1.59,3.05,2.26,4.07,2.07,8.44,3.37,13.13,3.93Z"/>
            <path class="st0" d="M147.59,598.95c4.81-2.63,8.92-5.51,12.32-8.64,1.67-1.59,3.19-3.21,4.52-4.92.68-.87,1.3-1.75,1.87-2.63.3-.42.55-.95.85-1.3l.84-.67c.24-.25.55-.29.82-.39.27-.08.51.03.76-.66.49-.98.93-2.01,1.36-3.06.82-2.08,1.46-4.29,1.94-6.58.94-4.63,1.22-9.67.79-15.15-10.17,4.84-17.59,10.98-22.23,18.5-1.16,1.87-2.15,3.83-2.97,5.88-.41,1.16-.8,1.65-1.07,2.59-.24.84-.42,1.82-.55,2.99-.47,4.37-.22,9.1.75,14.03Z"/>
          </g>
          <g>
            <path class="st0" d="M135.12,550.71c-3.43-24.06-14.49-38.31-33.16-42.75.54,11.46,3.96,21.01,10.27,28.72,6.03,7.28,13.65,11.95,22.89,14.03Z"/>
            <path class="st0" d="M145.72,561.53c20.33-8.13,29.64-23.14,27.94-45.04-20.34,9.64-29.64,24.65-27.94,45.04Z"/>
          </g>
          <g>
            <path class="st0" d="M135.12,512.24c-3.43-24.07-14.49-38.33-33.16-42.76.54,11.46,3.96,21.05,10.27,28.73,6.03,7.25,13.65,11.93,22.89,14.03Z"/>
            <path class="st0" d="M145.72,523.05c20.33-8.15,29.64-23.16,27.94-45.06-20.34,9.64-29.64,24.67-27.94,45.06Z"/>
          </g>
          <g>
            <path class="st0" d="M135.12,473.75c-3.43-24.05-14.49-38.32-33.16-42.76.54,11.46,3.96,21.02,10.27,28.73,6.03,7.27,13.65,11.96,22.89,14.03Z"/>
            <path class="st0" d="M145.72,484.57c20.33-8.13,29.64-23.16,27.94-45.06-20.34,9.64-29.64,24.67-27.94,45.06Z"/>
          </g>
          <path class="st0" d="M141,446.8c11.83-20.42,12.19-37.66,1.13-51.75-6.45,9.1-9.63,18.41-9.59,27.91.1,9.01,2.9,16.98,8.45,23.84Z"/>
        </g>
        <g>
          <g>
            <path class="st0" d="M550.49,940.74c6.11.82,11.62,1.58,16.63,3.06,5.03,1.54,9.5,3.31,13.51,5.59,7.99,4.64,14.05,11.32,17.93,20.06-12.6,1.4-23.58-.83-32.29-6.62-4.13-2.74-7.47-5.88-10.08-9.59-2.61-3.76-4.51-7.91-5.69-12.49Z"/>
            <path class="st0" d="M539.59,930.39c3.99-10.29,9.22-17.78,15.83-22.65,6.6-5.16,14.56-7.52,24.39-8.04-2.95,10.51-7.91,18.88-14.74,23.9-3.42,2.53-7.29,4.61-11.56,5.66-4.28,1.05-8.94,1.43-13.92,1.13Z"/>
            <path class="st0" d="M509.12,931.82c2.24-9.92,6.02-17.48,11.38-22.84,5.32-5.6,12.27-8.83,21.15-10.62-1.27,10.01-4.65,18.31-10.22,23.83-2.77,2.78-6.01,5.2-9.76,6.74-3.76,1.54-7.98,2.5-12.55,2.89Z"/>
          </g>
          <g>
            <path class="st0" d="M589.14,937.41c6.09-.17,11.69.24,16.85,1.19,5.12.74,9.8,2.05,14.03,3.96,8.5,3.84,15.16,9.46,20.03,17.9-6.17,1.4-12,1.98-17.54,1.36-5.51-.6-10.56-1.83-15.25-4.28-8.81-4.6-14.76-11.36-18.13-20.12Z"/>
            <path class="st0" d="M577.1,928.18c2.81-10.65,7.22-18.41,13.19-24.27,6.03-5.62,13.62-9.18,23.37-10.59-1.73,10.9-5.79,19.33-11.97,25.42-6.23,5.76-14.57,9.28-24.59,9.45Z"/>
          </g>
          <g>
            <path class="st0" d="M627.12,929.61c12.19-1.33,22.44-1.08,31.3,1.79,8.76,2.64,16.14,7.81,21.91,15.62-6.02,1.97-11.82,3.07-17.29,3.27-5.54,0-10.77-.87-15.62-2.61-9.24-3.44-15.99-9.77-20.3-18.07Z"/>
            <path class="st0" d="M614.15,921.87c3.39-21.58,13.56-33.69,32.46-38.8-.27,5.52-1.12,10.61-2.65,15.04-1.54,4.36-3.7,8.23-6.46,11.57-2.71,3.38-6.09,6.01-10.03,8.02-3.91,2.03-8.35,3.62-13.33,4.16Z"/>
          </g>
          <g>
            <path class="st0" d="M664.03,917.73c6.01-1.22,11.45-2.35,16.69-2.56,5.25-.18,10.03-.04,14.58.84,4.51.89,8.77,2.42,12.71,4.64,3.89,2.14,7.49,4.93,10.75,8.47-5.62,2.89-11.37,4.37-16.8,5.14-5.42.8-10.75.42-15.81-.85-4.77-1.23-8.99-3.16-12.65-5.74-3.7-2.68-6.86-6.01-9.47-9.94Z"/>
            <path class="st0" d="M650.3,911.54c.36-11.04,2.89-19.78,7.51-26.62,2.27-3.52,5.1-6.51,8.53-9,3.43-2.5,7.32-4.85,11.95-6.57,1.43,21.93-8.51,37.13-27.99,42.19Z"/>
          </g>
          <g>
            <path class="st0" d="M699.4,901.91c5.72-2.15,11.17-3.55,16.35-4.36,5.08-.95,9.91-1.23,14.56-.78,9.22.85,17.38,4.05,24.71,10.48-10.69,6.72-21.68,9.13-31.89,7.84-9.83-1.54-17.66-5.98-23.73-13.18Z"/>
            <path class="st0" d="M685.04,897.13c-.8-10.94.83-19.79,4.57-27.28,3.89-7.25,9.93-13.11,18.73-17.64,1.89,10.93.72,20.15-3.11,27.98-4.05,7.44-10.75,13.53-20.19,16.94Z"/>
          </g>
          <g>
            <path class="st0" d="M732.81,882.21c11.09-5.16,20.87-8.25,30.19-8.36,9.13-.29,17.78,2.24,25.71,7.8-5.04,3.8-10.15,6.68-15.25,8.61-5.25,1.77-10.48,2.61-15.64,2.52-9.81-.25-18.24-4.11-25.02-10.56Z"/>
            <path class="st0" d="M718.04,879.1c-3.82-21.52,1.96-36.29,18.29-47.24,1.51,5.3,2.31,10.4,2.28,15.09-.04,4.64-.85,9-2.39,13.04-1.49,4.09-3.83,7.69-6.91,10.84-3.08,3.14-6.72,6.12-11.27,8.26Z"/>
          </g>
          <g>
            <path class="st0" d="M763.92,859.11c5.32-3.07,10.12-5.86,14.99-7.74,4.93-1.86,9.55-3.2,14.1-3.83,9.14-1.2,18.01.45,26.38,5.04-9.09,8.69-19.08,13.58-29.5,14.33-4.91.35-9.5-.11-13.8-1.41-4.37-1.36-8.43-3.49-12.16-6.39Z"/>
            <path class="st0" d="M748.94,857.64c-3.19-10.55-3.61-19.68-1.37-27.64,2.08-8.12,6.99-14.9,14.51-21.34,4.05,10.16,5.21,19.8,2.84,27.96-1.15,4.11-2.95,8.09-5.67,11.6-2.73,3.45-6.2,6.6-10.32,9.42Z"/>
          </g>
          <g>
            <path class="st0" d="M792.43,832.86c4.78-3.8,9.44-6.92,14.11-9.29,4.59-2.43,9.04-4.28,13.55-5.33,9.1-2.03,17.81-1.54,26.73,2.25-2.01,2.42-4.09,4.63-6.23,6.57-2.23,1.89-4.54,3.56-6.86,4.99-4.71,2.88-9.48,4.95-14.67,5.8-9.75,1.66-18.56-.06-26.62-4.99Z"/>
            <path class="st0" d="M777.28,832.87c-4.28-10.16-5.46-18.98-4.28-27.32.64-4.14,2.08-7.97,4.08-11.73,1.99-3.84,4.71-7.48,8.23-10.96,5.08,9.64,7.08,18.99,5.75,27.52-1.43,8.41-5.93,16.22-13.78,22.49Z"/>
          </g>
          <g>
            <path class="st0" d="M817.95,803.66c17.62-16.8,34.26-23.46,52.84-17.83-6.95,10.48-15.98,17.06-25.78,20.11-9.57,2.67-18.56,1.79-27.06-2.28Z"/>
            <path class="st0" d="M802.92,805.31c-2.62-4.78-4.48-9.38-5.62-13.81-1.23-4.49-1.73-8.8-1.48-12.93.27-4.14,1.26-8.12,2.83-12.16,1.55-4.02,4.1-7.76,7.06-11.75,6.27,9.28,8.89,18.11,8.56,26.83-.13,4.35-1.37,8.41-3.21,12.44-.94,2.01-2.09,4-3.4,5.91-1.38,1.89-2.98,3.69-4.74,5.46Z"/>
          </g>
          <g>
            <path class="st0" d="M840.7,771.41c1.96-2.32,3.98-4.47,6-6.46,2-1.98,3.89-3.86,5.89-5.53,3.95-3.34,8.14-5.93,12.28-7.88,8.22-4,17.12-5.13,26.61-3.21-3.05,5.48-6.51,10.15-10.42,13.96-4.06,3.72-8.47,6.6-13.23,8.58-8.99,3.75-18.29,3.68-27.13.55Z"/>
            <path class="st0" d="M826,774.67c-12.41-18.1-13.05-33.99-2.5-50.77,7.16,8.59,10.84,17.2,11.25,25.81.28,4.36-.32,8.62-1.88,12.76-1.53,4.14-3.66,8.34-6.87,12.2Z"/>
          </g>
          <g>
            <path class="st0" d="M859.72,737.69c13.8-20.08,28.87-29.84,48.26-27.91-2.52,5.7-5.56,10.68-9.03,14.83-3.54,4.14-7.8,7.37-12.33,9.81-8.57,4.61-17.73,5.51-26.9,3.27Z"/>
            <path class="st0" d="M845.45,742.4c-7.16-8.37-11.32-16.6-12.37-24.79-1.45-8.39.57-16.55,4.84-25.6,3.91,3.93,7.05,7.97,9.39,12.1,2.3,4.12,3.68,8.27,4.33,12.56,1.41,8.58-.93,17.19-6.19,25.73Z"/>
          </g>
          <g>
            <path class="st0" d="M875.33,702.22c11.79-21.3,25.89-32.42,45.41-32.25-3.97,11.81-10.16,20.82-18.95,26.45-4.1,2.66-8.34,4.47-12.7,5.45-4.49.92-9.05,1.03-13.76.35Z"/>
            <path class="st0" d="M861.52,708.3c-7.94-7.63-12.75-15.4-14.67-23.51-2.17-8.2-1-16.56,2.43-26.01,8.52,7.07,14.05,14.95,15.99,23.27.99,4.19,1.34,8.55.67,12.94-.7,4.37-2.17,8.8-4.42,13.3Z"/>
          </g>
          <g>
            <path class="st0" d="M887.51,665.45c9.72-22.32,22.81-34.6,42.25-36.15-2.88,12.07-8.23,21.59-16.46,27.96-7.64,6.05-16.27,8.71-25.8,8.19Z"/>
            <path class="st0" d="M874.31,672.79c-8.62-6.85-14.09-14.14-16.78-22.05-2.92-7.99-2.49-16.46.09-26.22,9.13,6.3,15.32,13.65,18,21.79,1.38,4.08,2.07,8.4,1.89,12.83-.31,4.4-1.37,8.97-3.2,13.65Z"/>
          </g>
          <g>
            <path class="st0" d="M896.27,627.76c2.15-5.77,4.07-10.97,6.63-15.48,2.51-4.57,5.52-8.46,8.57-11.77,6.27-6.62,14.21-10.8,23.76-12.33-.92,6.11-2.52,11.64-4.77,16.52-2.28,4.88-5.51,9.1-9.22,12.65-3.54,3.34-7.39,5.86-11.52,7.59-4.22,1.71-8.71,2.64-13.44,2.82Z"/>
            <path class="st0" d="M883.8,636.24c-9.22-6.05-15.32-12.84-18.68-20.52-3.65-7.73-3.89-16.27-2.16-26.25,4.81,2.77,8.9,5.84,12.26,9.22,3.32,3.4,5.76,7.06,7.53,11.01,1.72,3.94,2.84,8.18,2.98,12.61.09,4.44-.56,9.08-1.94,13.92Z"/>
          </g>
          <g>
            <path class="st0" d="M901.75,589.42c.65-2.98,1.76-5.65,2.4-8.75.66-2.79,1.45-5.28,2.35-7.67,1.82-4.81,4.11-8.97,6.87-12.54,5.52-7.13,12.95-11.79,22.3-14.03-.54,11.46-3.96,21.03-10.27,28.75-1.51,1.79-3.12,3.47-4.84,4.95-.85,1.01-1.71,2.24-2.65,3.1-.99.84-2,1.59-3.03,2.26-4.07,2.07-8.44,3.37-13.13,3.93Z"/>
            <path class="st0" d="M890.05,598.95c-4.84-2.63-8.95-5.51-12.33-8.64-1.71-1.59-3.21-3.21-4.53-4.92-.68-.87-1.31-1.75-1.87-2.63-.29-.42-.55-.95-.85-1.3l-.83-.67c-.24-.25-.55-.29-.83-.39-.26-.08-.52.03-.75-.66-.5-.98-.94-2.01-1.36-3.06-.82-2.08-1.47-4.29-1.94-6.58-.96-4.63-1.22-9.67-.79-15.15,10.17,4.84,17.57,10.98,22.23,18.5,1.17,1.87,2.16,3.83,2.98,5.88.39,1.16.8,1.65,1.08,2.59.23.84.4,1.82.53,2.99.49,4.37.23,9.1-.73,14.03Z"/>
          </g>
          <g>
            <path class="st0" d="M902.51,550.71c3.42-24.06,14.48-38.31,33.16-42.75-.54,11.46-3.96,21.01-10.27,28.72-6.04,7.28-13.67,11.95-22.89,14.03Z"/>
            <path class="st0" d="M891.89,561.53c-20.32-8.13-29.62-23.14-27.92-45.04,20.34,9.64,29.66,24.65,27.92,45.04Z"/>
          </g>
          <g>
            <path class="st0" d="M902.51,512.24c3.42-24.07,14.48-38.33,33.16-42.76-.54,11.46-3.96,21.05-10.27,28.73-6.04,7.25-13.67,11.93-22.89,14.03Z"/>
            <path class="st0" d="M891.89,523.05c-20.32-8.15-29.62-23.16-27.92-45.06,20.34,9.64,29.66,24.67,27.92,45.06Z"/>
          </g>
          <g>
            <path class="st0" d="M902.51,473.75c3.42-24.05,14.48-38.32,33.16-42.76-.54,11.46-3.96,21.02-10.27,28.73-6.04,7.27-13.67,11.96-22.89,14.03Z"/>
            <path class="st0" d="M891.89,484.57c-20.32-8.13-29.62-23.16-27.92-45.06,20.34,9.64,29.66,24.67,27.92,45.06Z"/>
          </g>
          <path class="st0" d="M896.63,446.8c-11.82-20.42-12.19-37.66-1.12-51.75,6.43,9.1,9.63,18.41,9.58,27.91-.1,9.01-2.93,16.98-8.46,23.84Z"/>
        </g>
      </g>
      <path class="st0" d="M897.49,458.73l.73,130.82v.07c-3.9,47.17-15.26,93.93-35.23,137-19.86,43.07-48.4,82.16-83.53,114.11-35.06,32.02-76.49,56.94-120.93,73.61-44.45,16.69-91.96,25.34-139.47,25.18-23.66.06-47.56-2.03-70.88-6.27-23.38-4.22-46.36-10.54-68.61-18.89-44.44-16.67-85.85-41.59-120.93-73.62-35.11-31.95-63.66-71.04-83.52-114.11-19.96-43.07-31.34-89.83-35.22-137v-.07l.75-130.82.75,130.82v-.06c4.56,46.94,15.87,93.38,35.91,136.11,19.89,42.72,48.37,81.39,83.34,112.95,34.9,31.63,76.05,56.15,120.17,72.5,22.06,8.2,44.86,14.38,68.03,18.48,23.22,4.12,46.61,6.05,70.23,5.94,47.07.35,94.13-8.04,138.25-24.4,44.11-16.37,85.26-40.89,120.17-72.52,34.96-31.56,63.45-70.23,83.35-112.95,20.03-42.72,31.35-89.16,35.91-136.11v.06s.75-130.82.75-130.82Z"/>
    </g>
    <path class="st0" d="M198.51,151.62v407.76c0,87.76,32.81,168.91,92.38,228.48,59.58,59.58,140.72,92.38,228.49,92.38s168.89-32.8,228.47-92.38c59.58-59.58,92.38-140.73,92.38-228.48V151.62H198.51ZM289.2,760.66c-15.54-17.9-28.91-37.79-39.79-59.33v-343.76h39.79v403.09ZM389.39,835.1c-13.92-6.28-27.21-13.53-39.78-21.72v-51.85c11.82,13.14,25.2,24.86,39.78,34.94v38.63ZM489.58,861.08c-13.61-1.22-26.85-3.3-39.78-6.11v-28.87c12.81,4.04,26.11,6.92,39.78,8.64v26.34ZM589.8,854.77c-12.93,2.85-26.19,4.99-39.8,6.23v-26.79c13.71-1.94,27-5.14,39.8-9.46v30.02ZM690,812.83c-12.57,8.26-25.88,15.58-39.79,21.9v-41.07c14.69-10.62,28.05-22.95,39.79-36.7v55.87ZM517.82,825.16c-118.62,0-215.12-96.51-215.12-215.14s96.49-215.09,215.12-215.09,215.1,96.49,215.1,215.09-96.5,215.14-215.1,215.14ZM349.61,458.52v-100.94h39.78v66.02c-14.58,10.09-27.96,21.82-39.78,34.92ZM449.8,393.96v-36.39h39.78v27.77c-13.67,1.71-26.97,4.6-39.78,8.62ZM549.99,385.86v-28.29h39.8v37.75c-12.8-4.3-26.09-7.52-39.8-9.46ZM650.2,426.41v-68.84h39.79v105.54c-11.75-13.75-25.11-26.09-39.79-36.7ZM790.19,699.67c-10.85,21.77-24.21,41.87-39.78,60v-402.1h39.78v342.1ZM822.41,335.67H216.33v-166.24h606.08v166.24Z"/>
    <g>
      <path class="st0" d="M303.42,239.1h-21.24l-2.27-11.05h-15.79l-2.95,3.03v6.22l2.5,2.58,27.37,6.07,13.29,13.81v30.35l-16.24,17.9h-34.19l-16.13-17.87v-19.23h21.24l2.27,11.06h16.58l2.84-3.18v-7.12l-2.16-2.57-27.26-6.06-13.52-14.84v-28.93l15.45-17.26h34.75l15.45,17.17v19.94Z"/>
      <path class="st0" d="M385.3,228.2v63.31l-14.88,16.51h-35.78l-14.99-16.51v-63.31l-8.63-3.03v-23.17h37.37v23.17l-5.22,3.03v50.28l3.07,3.48h13.17l2.95-3.48v-50.28l-5.11-3.03v-23.17h36.68v23.17l-8.63,3.03Z"/>
      <path class="st0" d="M475.93,253.19l-16.47,18.32h-26.24v10.6l8.63,3.03v22.87h-40.77v-23.02l8.63-3.03v-53.76l-8.63-3.03v-23.17h58.38l16.47,18.48v32.71ZM433.23,228.05v17.42h16.24l2.95-3.39v-10.79l-2.95-3.24h-16.24Z"/>
      <path class="st0" d="M558.96,253.19l-16.47,18.32h-26.24v10.6l8.63,3.03v22.87h-40.77v-23.02l8.63-3.03v-53.76l-8.63-3.03v-23.17h58.38l16.47,18.48v32.71ZM516.25,228.05v17.42h16.24l2.95-3.39v-10.79l-2.95-3.24h-16.24Z"/>
      <path class="st0" d="M625.4,298.54c-2.88,3.18-5.76,6.34-8.63,9.47h-32.48l-17.15-18.93v-68.61l16.58-18.48h33.73l16.58,18.48v68.61c-2.88,3.13-5.75,6.29-8.63,9.47ZM593.6,228.05l-3.07,3.19v47.23l3.18,3.49h13.74l3.18-3.49v-47.23l-3.07-3.19h-13.97Z"/>
      <path class="st0" d="M644.02,308.01v-23.02l8.63-3.03v-53.76l-8.63-3.03v-23.17h59.06l15.33,17.26v31.65l-11.24,12.72,8.63,18.32,6.02,1.51v24.53h-21.58l-18.17-41.35h-5.91v15.3l8.63,3.03v23.02h-40.77ZM676.16,245.46h16.13l2.73-3.05v-11.31l-2.73-3.05h-16.13v17.42Z"/>
      <path class="st0" d="M787.69,245.76l-2.27-19.23h-8.75v55.43l9.77,3.18v22.87h-42.93v-22.87l9.65-3.04v-55.57h-8.75l-2.27,19.23h-16.81v-43.77h79.05v43.77h-16.69Z"/>
    </g>
    <path class="st0" d="M784.49,85.69h-.49c-1.72,8.03-3.68,17.53-5.65,25.07l-1.35,5.48h14.73l-1.35-5.48c-1.96-7.55-3.93-17.16-5.89-25.07ZM198.7,36.83v116.15h641.94V36.83H198.7ZM283.95,149.23h-51.31v-79.11h21.11v61.59h30.19v17.53ZM321.76,121.96v27.26h-21.11v-27.26l-24.06-51.85h22.58l5.89,16.55c1.96,5.96,3.93,11.44,6.01,17.65h.49c2.09-6.21,4.17-11.68,6.26-17.65l5.89-16.55h22.09l-24.06,51.85ZM399.82,149.23l-17.67-30.43-7.61,10.71v19.72h-21.11v-79.11h21.11v29.45h.49l20.13-29.45h23.08l-23.81,32.13,28.48,46.98h-23.08ZM476.9,149.23l-17.67-30.43-7.61,10.71v19.72h-21.11v-79.11h21.11v29.45h.49l20.13-29.45h23.08l-23.81,32.13,28.48,46.98h-23.08ZM560.36,149.23h-52.78v-79.11h51.55v17.53h-30.44v12.41h26.02v17.53h-26.02v14.12h31.67v17.53ZM627.14,149.23h-51.31v-79.11h21.11v61.59h30.19v17.53ZM661.99,149.23h-21.11v-79.11h21.11v79.11ZM743.49,140.95c-5.65,5.36-15.71,9.74-27,9.74-22.34,0-40.26-13.39-40.26-40.41s18.41-41.63,39.77-41.63c11.78,0,20.37,4.87,26.02,10.47l-11.05,13.39c-3.93-3.41-7.86-5.84-14.24-5.84-10.8,0-18.9,8.52-18.9,22.88s6.63,23.12,20.87,23.12c2.21,0,4.66-.49,6.14-1.46v-10.95h-11.78v-17.04h30.44v37.73ZM799.47,149.23l-3.93-16.8h-22.34l-3.93,16.8h-21.6l24.3-79.11h25.53l24.3,79.11h-22.34Z"/>
  </g>
</svg>